<?xml version="1.0" encoding="UTF-8" standalone="no"?>
<svg
   xmlns:dc="http://purl.org/dc/elements/1.1/"
   xmlns:cc="http://creativecommons.org/ns#"
   xmlns:rdf="http://www.w3.org/1999/02/22-rdf-syntax-ns#"
   xmlns:svg="http://www.w3.org/2000/svg"
   xmlns="http://www.w3.org/2000/svg"
   xmlns:sodipodi="http://sodipodi.sourceforge.net/DTD/sodipodi-0.dtd"
   xmlns:inkscape="http://www.inkscape.org/namespaces/inkscape"
   version="1.1"
   width="596.16626"
   height="596.16846"
   viewBox="0 0 596.16626 596.16846"
   id="svg31"
   sodipodi:docname="hands.svg"
   inkscape:version="0.92.4 5da689c313, 2019-01-14">
  <metadata
     id="metadata37">
    <rdf:RDF>
      <cc:Work
         rdf:about="">
        <dc:format>image/svg+xml</dc:format>
        <dc:type
           rdf:resource="http://purl.org/dc/dcmitype/StillImage" />
      </cc:Work>
    </rdf:RDF>
  </metadata>
  <defs
     id="defs35" />
  <sodipodi:namedview
     pagecolor="#ffffff"
     bordercolor="#666666"
     borderopacity="1"
     objecttolerance="10"
     gridtolerance="10"
     guidetolerance="10"
     inkscape:pageopacity="0"
     inkscape:pageshadow="2"
     inkscape:window-width="640"
     inkscape:window-height="480"
     id="namedview33"
     showgrid="false"
     inkscape:zoom="0.24180328"
     inkscape:cx="294.46278"
     inkscape:cy="278.69056"
     inkscape:window-x="0"
     inkscape:window-y="0"
     inkscape:window-maximized="0"
     inkscape:current-layer="svg31" />
  <g
     id="layer1"
     transform="translate(106.1238,-79.53906)">
    <g
       style="fill:#2c8daf;fill-opacity:1;stroke-linejoin:miter"
       id="g4">
      <path
         d="M 200.36496,79.563354 Q 77.2101,78.13388 -12.796297,160.84496 q -88.237613,86.58763 -93.281633,207.57722 -1.97596,122.93002 81.163963,213.85779 85.292393,87.88403 208.344077,93.40143 123.15539,1.48224 213.20149,-81.1981 88.2748,-86.5587 93.36294,-207.547 2.0202,-122.92806 -81.08008,-213.88265 -85.2533,-87.91341 -208.29932,-93.48331"
         id="path2"
         inkscape:connector-curvature="0" />
    </g>
    <g
       style="fill:#f1c19c;fill-opacity:1;stroke-linejoin:miter"
       id="g8">
      <path
         d="m 207.02193,567.7365 c 0,-0.76244 -0.23828,-3.3359 -0.47653,-5.8141 -0.85782,-8.2445 -1.66794,-26.878 -1.66794,-39.6023 0.0476,-10.0555 0.19058,-13.6297 0.90542,-17.63275 1.00077,-5.8617 1.6203,-7.19617 3.76483,-8.53052 2.57346,-1.57263 7.95856,-7.57727 14.34452,-15.9649 1.00076,-1.33436 3.05002,-3.71717 4.57501,-5.2898 1.52499,-1.57263 4.09851,-5.00391 5.76648,-7.62503 3.76485,-6.00482 5.71876,-8.62592 9.67418,-13.05792 1.71564,-1.95386 3.57422,-4.3844 4.05078,-5.48048 0.47656,-1.09606 1.71564,-2.90697 2.71643,-4.05077 1.0484,-1.14368 3.00229,-3.33593 4.38431,-4.8609 3.09765,-3.47895 3.66955,-4.86083 2.90704,-6.71949 -1.0961,-2.71644 -5.09921,-3.52654 -8.76874,-1.85858 -3.3359,1.5249 -15.53584,11.81874 -17.48979,14.77344 -0.47656,0.66718 -2.47812,2.90704 -4.52734,4.90863 -3.43125,3.47887 -6.24299,5.14685 -8.62579,5.14685 -0.71485,0 -6.14762,-3.47888 -7.00544,-4.47974 -0.28595,-0.28588 -1.19143,-1.04846 -2.04926,-1.66796 -1.09606,-0.76246 -2.14452,-2.28748 -3.28826,-4.76563 -2.0969,-4.57495 -4.19379,-10.57965 -4.67035,-13.39135 -0.19064,-1.1914 -0.66721,-3.43128 -1.04843,-5.0039 -0.71485,-2.90706 -2.14456,-11.5329 -3.05002,-18.8243 -0.81015,-6.4812 -1.76331,-12.3906 -2.57346,-15.72652 -0.38122,-1.71564 -1.0484,-4.71796 -1.42965,-6.67188 -0.85779,-4.14612 -3.09757,-10.9133 -4.24133,-12.62894 -1.0008,-1.52502 -3.52662,-3.09762 -4.9563,-3.09762 -1.76325,0 -3.8125,1.76326 -4.14606,3.47886 -0.14301,0.85784 0.143,4.00313 0.71484,7.00548 2.14447,12.20005 2.47803,14.91642 2.14456,19.77742 -0.19067,3.28826 -0.0953,6.14763 0.4289,9.29296 1.00079,6.29064 1.52498,18.82428 0.81013,19.25317 -0.81012,0.52423 -2.38281,-0.14301 -2.95465,-1.23908 -0.28595,-0.52415 -0.71484,-4.76562 -0.95314,-9.34063 -0.19061,-4.62268 -0.52423,-8.91175 -0.66718,-9.57898 -0.61956,-3.14527 -2.2399,-19.25311 -2.19229,-22.44608 0.0477,-1.95392 -0.23821,-6.19534 -0.61944,-9.43596 -0.76251,-6.62422 -1.76331,-8.62574 -4.8133,-9.62654 -2.14453,-0.71484 -3.81247,-0.28598 -5.28982,1.28672 -1.09604,1.19146 -1.14371,1.47735 -1.14371,8.2922 l -6e-5,7.1008 -1.66797,1.0484 c -2.71637,1.71562 -6.67183,10.19846 -7.62501,16.2508 -0.42896,2.52575 -0.95313,5.14685 -1.19141,5.81408 -0.47656,1.19141 -1.62036,1.57264 -2.14453,0.71484 -0.14294,-0.23828 -1.1438,-0.47656 -2.14453,-0.47656 -2.14453,0 -2.6211,0.57184 -3.57422,4.47962 -0.38123,1.33441 -0.95313,3.62194 -1.38208,5.05164 -0.42883,1.42968 -0.76245,3.90783 -0.76245,5.48046 2e-5,1.57269 -0.42894,4.38446 -0.95311,6.19538 -0.76245,2.90698 -0.85779,3.90783 -0.42896,7.625 0.23829,2.38276 0.76258,7.81556 1.09619,12.15222 0.47657,5.19458 1.0484,8.8164 1.71558,10.72264 0.52423,1.57265 1.85858,6.14778 2.907,10.1509 2.95471,11.19924 5.4328,17.01333 9.48358,22.39846 3.43127,4.47974 4.14612,6.43359 5.00391,13.20081 0.42895,3.43133 1.00079,7.29143 1.23907,8.57809 1.00079,4.90854 1.00073,12.3429 3e-5,24.30469 -0.52423,6.57655 -1.09613,14.48755 -1.23917,17.63295 -0.143,3.14525 -0.38128,7.57725 -0.52423,9.91234 l -0.28588,4.14611 21.96951,-1.2e-4 21.96953,1.2e-4 z M 154.60016,430.24823 c 0,-1.19141 0.14294,-1.38208 0.47656,-0.85779 0.61951,0.95313 0.61951,2.38281 0,2.38281 -0.28589,0 -0.47656,-0.71485 -0.47656,-1.52502 z"
         id="path6"
         inkscape:connector-curvature="0" />
    </g>
    <g
       style="fill:#f1c19c;fill-opacity:1;stroke-linejoin:miter"
       id="g12">
      <path
         d="m 234.7103,406.03876 1.42968,-1.42969 -0.0953,-6.95773 -0.0953,-7.00554 1.19141,-0.61952 c 2.95471,-1.525 7.24374,-10.2461 8.00622,-16.20313 0.42893,-3.33591 1.14377,-6.38589 1.76328,-7.48195 0.14297,-0.1907 0.76251,-0.0477 1.38205,0.33354 1.66797,1.14374 3.86013,0.95313 4.67028,-0.28594 0.90549,-1.42966 3.76485,-12.1999 3.43128,-13.01008 -0.28595,-0.81018 0.52417,-6.19532 1.19141,-7.95862 0.38122,-0.95312 0.38122,-3.5742 -0.0477,-9.48358 -0.28592,-4.4797 -0.61954,-8.62582 -0.71484,-9.19766 -0.0953,-0.52423 -0.28593,-2.47816 -0.47657,-4.33673 -0.19061,-1.81091 -0.95313,-5.24219 -1.71563,-7.625 -0.71485,-2.33511 -1.66798,-5.57578 -2.04923,-7.14841 -3.19287,-12.91485 -5.52805,-18.4906 -10.29367,-24.78125 -3.14527,-4.14612 -3.7648,-5.86169 -4.76566,-13.43914 -0.52417,-3.86003 -1.19131,-8.4827 -1.47726,-10.24601 -0.76251,-4.3843 -0.38126,-15.24991 1.47726,-39.69755 0.28595,-3.38361 0.6196,-9.48358 0.81021,-13.43909 l 0.28595,-7.29135 -22.49373,-3e-5 -22.49371,-6e-5 0.28592,3.47885 c 0.19064,1.85864 0.61954,6.00473 1.00076,9.15005 0.81016,7.19611 1.66791,29.16564 1.62027,42.84288 -0.0476,15.58356 -1.19134,21.96955 -4.19366,23.73285 -0.71485,0.4289 -2.09686,1.57263 -3.04999,2.47809 -2.09683,2.04926 -10.34146,11.86637 -12.86722,15.29764 -0.95318,1.33435 -2.33514,2.85937 -3.14532,3.43127 -1.28675,0.95313 -2.66882,2.85938 -8.81635,12.29535 -1.1914,1.85858 -3.90783,5.3375 -6.00471,7.76792 -2.14453,2.43051 -4.33673,5.33756 -4.86096,6.43362 -0.5719,1.09614 -1.81092,2.90704 -2.76404,3.95551 -4.3844,5.05157 -6.33826,7.29133 -6.95783,8.1015 -1.14373,1.47733 -0.85785,3.47885 0.66718,5.00387 1.14379,1.1438 1.81091,1.38208 3.57422,1.38208 3.05005,0 5.48047,-1.28674 11.24688,-5.90936 4.76564,-3.76483 6.43359,-5.43286 13.96328,-13.7727 3.19293,-3.57422 7.00543,-6.05236 9.34063,-6.05236 0.85779,0 3.09766,1.42968 8.76871,5.6711 5.43277,4.05078 10.00775,20.53986 13.15311,47.2273 0.28592,2.23986 0.66717,4.9086 0.95312,5.95706 0.23828,1.04844 1.0007,4.71798 1.71555,8.10159 1.14377,5.86169 3.3836,13.29611 4.81332,16.01251 1.23905,2.43042 4.52735,3.76484 6.91013,2.81171 2.76407,-1.19141 2.95468,-3.04999 1.09604,-13.58203 -0.90549,-5.05158 -1.38199,-10.00784 -1.62027,-16.918 -0.23828,-5.38514 -0.61954,-11.05624 -0.90546,-12.62888 -0.28592,-1.57263 -0.5242,-5.62341 -0.5242,-8.95936 -3e-5,-5.05156 0.14294,-6.1477 0.71478,-6.38597 1.0961,-0.38123 2.52579,1.14379 2.81174,3.09765 0.14294,1.00079 0.38126,3.71722 0.52423,6.05237 0.38126,7.0531 1.23908,15.86955 1.95392,21.207 0.42889,2.76405 0.81009,7.91098 0.95306,11.43753 0.23827,6.76718 0.9532,13.48676 1.71569,16.06012 1.14376,3.90784 6.24304,5.33752 9.00711,2.52576 z m 11.38977,-62.52491 c 0,-0.47655 0.19061,-0.85778 0.47656,-0.85778 0.23828,0 0.47656,0.71483 0.47656,1.57263 0,1.1438 -0.143,1.3344 -0.47656,0.81018 -0.23828,-0.38123 -0.47656,-1.09608 -0.47656,-1.52503 z"
         id="path10"
         inkscape:connector-curvature="0" />
    </g>
    <g
       style="fill:#ffffff;fill-opacity:1;stroke-linejoin:miter"
       id="g16">
      <path
         d="m 218.45729,512.4908 -59.11684,0.2303 0.17508,57.82425 59.057,-0.17542 -0.11493,-57.77223"
         id="path14"
         inkscape:connector-curvature="0" />
    </g>
    <g
       style="fill:#000000;fill-opacity:1;stroke-linejoin:miter"
       id="g20">
      <path
         d="m 229.91566,528.34845 -81.98004,0.24355 -0.1214,0.1273 0.42655,143.58606 h 0.001 q 17.19005,2.56904 35.18786,3.37604 2.16897,0.0261 4.32767,0.0261 21.83859,0 42.62616,-2.6717 h 0.002 z"
         id="path18"
         inkscape:connector-curvature="0" />
    </g>
    <g
       style="fill:#ffffff;fill-opacity:1;stroke-linejoin:miter"
       id="g24">
      <path
         d="m 247.3392,256.57776 -59.09587,-1.59266 1.50787,-57.80488 59.03725,1.5365 -1.44644,57.75423"
         id="path22"
         inkscape:connector-curvature="0" />
    </g>
    <g
       style="fill:#000000;fill-opacity:1;stroke-linejoin:miter"
       id="g28">
      <path
         d="m 196.18994,79.53907 q -7.54686,0 -14.96809,0.31887 h 0.002 l -4.13469,158.86758 0.11841,0.1301 11.44893,0.29796 7.68193,0.19994 v 0 c 0,1e-5 0,3e-5 0,4e-5 h 0.002 l 39.76215,1.03482 h -2e-5 c 0,2e-5 0,5e-5 0,6e-5 h 0.002 l 11.63251,0.30274 11.42279,0.29728 4.01682,-152.68255 h 0.003 q -29.95497,-7.25945 -62.5643,-8.73557 l -0.25018,-0.007 q -2.09229,-0.02428 -4.17502,-0.02428 z"
         id="path26"
         inkscape:connector-curvature="0" />
    </g>
  </g>
</svg>
